<?xml version="1.0" encoding="utf-8"?>
<!-- Uploaded to: SVG Repo, www.svgrepo.com, Generator: SVG Repo Mixer Tools -->
<svg fill="#000000" version="1.1" id="Layer_1" xmlns="http://www.w3.org/2000/svg" xmlns:xlink="http://www.w3.org/1999/xlink" 
	 width="800px" height="800px" viewBox="0 0 256 253" enable-background="new 0 0 256 253" xml:space="preserve">
<path d="M179.018,115.943v100h-100v-100H179.018z M84.587,121.512v24.024h6.829c0.488-5.203,3.252-9.187,6.585-9.187
	c3.333,0,6.098,3.984,6.585,9.187h2.602c0.488-5.203,3.252-9.187,6.585-9.187s6.098,3.984,6.585,9.187h33.171
	c0.488-5.203,3.252-9.187,6.585-9.187s6.098,3.984,6.585,9.187h6.748v-24.024H84.587z M166.701,183.504h6.789v-34.919h-6.748
	c-0.447,5.285-3.211,9.39-6.585,9.39c-3.374,0-6.138-4.106-6.585-9.39h-33.13c-0.447,5.285-3.211,9.39-6.585,9.39
	s-6.138-4.106-6.585-9.39h-2.561c-0.447,5.285-3.211,9.39-6.585,9.39s-6.138-4.106-6.585-9.39h-6.951v34.878h37.439
	c0.488-5.203,3.252-9.187,6.585-9.187s6.098,3.984,6.585,9.187h2.602c0.488-5.203,3.252-9.187,6.585-9.187s6.098,3.984,6.585,9.187
	h2.561c0.488-5.203,3.252-9.187,6.585-9.187s6.098,3.984,6.585,9.187V183.504z M173.449,210.374v-23.862h-6.748
	c-0.447,5.285-3.211,9.39-6.585,9.39c-3.374,0-6.138-4.106-6.585-9.39h-2.561c-0.447,5.285-3.211,9.39-6.585,9.39
	c-3.374,0-6.138-4.106-6.585-9.39h-2.561c-0.447,5.285-3.211,9.39-6.585,9.39c-3.374,0-6.138-4.106-6.585-9.39h-37.48v23.862
	H173.449z M2,69c0,13.678,9.625,25.302,22,29.576V233H2v18h252v-18h-22V98.554c12.89-3.945,21.699-15.396,22-29.554v-8H2V69z
	 M65.29,68.346c0,6.477,6.755,31.47,31.727,31.47c21.689,0,31.202-19.615,31.202-31.47c0,11.052,7.41,31.447,31.464,31.447
	c21.733,0,31.363-20.999,31.363-31.447c0,14.425,9.726,26.416,22.954,30.154V233H42V98.594C55.402,94.966,65.29,82.895,65.29,68.346
	z M222.832,22H223V2H34v20L2,54h252L222.832,22z"/>
</svg>